<svg width="143px" height="36px" viewBox="0 0 143 36" version="1.1" xmlns="http://www.w3.org/2000/svg" xmlns:xlink="http://www.w3.org/1999/xlink">
    <!-- Generator: Sketch 43.2 (39069) - http://www.bohemiancoding.com/sketch -->
    <desc>Created with Sketch.</desc>
    <defs></defs>
    <g id="Page-1" stroke="none" stroke-width="1" fill="none" fill-rule="evenodd">
        <g id="AppView" transform="translate(-40.000000, -34.000000)" fill="#FF5353">
            <g id="nav-logo" transform="translate(40.000000, 34.000000)">
                <g fill-rule="nonzero">
                    <path d="M40.9416667,18 C40.9416667,15.3226545 37.55,12.7853547 32.35,11.2118993 C33.55,5.97254005 33.0166667,1.80411899 30.6666667,0.469565217 C30.125,0.156521739 29.4916667,0.00823798627 28.8,0.00823798627 L28.8,1.84530892 C29.1833333,1.84530892 29.4916667,1.9194508 29.75,2.05949657 C30.8833333,2.7020595 31.375,5.14874142 30.9916667,8.29565217 C30.9,9.07002288 30.75,9.88558352 30.5666667,10.7176201 C28.9333333,10.3221968 27.15,10.0173913 25.275,9.81967963 C24.15,8.29565217 22.9833333,6.91167048 21.8083333,5.7006865 C24.525,3.20457666 27.075,1.83707094 28.8083333,1.83707094 L28.8083333,0 L28.8083333,0 C26.5166667,0 23.5166667,1.61464531 20.4833333,4.41556064 C17.45,1.63112128 14.45,0.0329519451 12.1583333,0.0329519451 L12.1583333,1.87002288 C13.8833333,1.87002288 16.4416667,3.22929062 19.1583333,5.70892449 C17.9916667,6.91990847 16.825,8.29565217 15.7166667,9.81967963 C13.8333333,10.0173913 12.05,10.3221968 10.4166667,10.7258581 C10.225,9.9020595 10.0833333,9.10297483 9.98333333,8.33684211 C9.59166667,5.18993135 10.075,2.74324943 11.2,2.09244851 C11.45,1.94416476 11.775,1.87826087 12.1583333,1.87826087 L12.1583333,0.0411899314 L12.1583333,0.0411899314 C11.4583333,0.0411899314 10.825,0.189473684 10.275,0.502517162 C7.93333333,1.83707094 7.40833333,5.997254 8.61666667,11.2201373 C3.43333333,12.8018307 0.0583333333,15.3308924 0.0583333333,18 C0.0583333333,20.6773455 3.45,23.2146453 8.65,24.7881007 C7.45,30.02746 7.98333333,34.195881 10.3333333,35.5304348 C10.875,35.8434783 11.5083333,35.991762 12.2083333,35.991762 C14.5,35.991762 17.5,34.3771167 20.5333333,31.5762014 C23.5666667,34.3606407 26.5666667,35.9588101 28.8583333,35.9588101 C29.5583333,35.9588101 30.1916667,35.8105263 30.7416667,35.4974828 C33.0833333,34.1629291 33.6083333,30.002746 32.4,24.7798627 C37.5666667,23.2064073 40.9416667,20.6691076 40.9416667,18 Z M30.0916667,12.5052632 C29.7833333,13.5679634 29.4,14.6636156 28.9666667,15.7592677 C28.625,15.1002288 28.2666667,14.4411899 27.875,13.782151 C27.4916667,13.1231121 27.0833333,12.4805492 26.675,11.8544622 C27.8583333,12.02746 29,12.2416476 30.0916667,12.5052632 Z M26.275,21.2787185 C25.625,22.3908467 24.9583333,23.4453089 24.2666667,24.4256293 C23.025,24.5327231 21.7666667,24.590389 20.5,24.590389 C19.2416667,24.590389 17.9833333,24.5327231 16.75,24.4338673 C16.0583333,23.4535469 15.3833333,22.4073227 14.7333333,21.3034325 C14.1,20.2242563 13.525,19.1286041 13,18.024714 C13.5166667,16.9208238 14.1,15.8169336 14.725,14.7377574 C15.375,13.6256293 16.0416667,12.571167 16.7333333,11.5908467 C17.975,11.4837529 19.2333333,11.426087 20.5,11.426087 C21.7583333,11.426087 23.0166667,11.4837529 24.25,11.5826087 C24.9416667,12.5629291 25.6166667,13.6091533 26.2666667,14.7130435 C26.9,15.7922197 27.475,16.8878719 28,17.991762 C27.475,19.0956522 26.9,20.1995423 26.275,21.2787185 Z M28.9666667,20.2077803 C29.4166667,21.3116705 29.8,22.4155606 30.1166667,23.4864989 C29.025,23.7501144 27.875,23.97254 26.6833333,24.1455378 C27.0916667,23.5112128 27.5,22.8604119 27.8833333,22.193135 C28.2666667,21.5340961 28.625,20.8668192 28.9666667,20.2077803 Z M20.5166667,28.9977117 C19.7416667,28.206865 18.9666667,27.3254005 18.2,26.3615561 C18.95,26.394508 19.7166667,26.419222 20.4916667,26.419222 C21.275,26.419222 22.05,26.402746 22.8083333,26.3615561 C22.0583333,27.3254005 21.2833333,28.206865 20.5166667,28.9977117 Z M14.3166667,24.1455378 C13.1333333,23.97254 11.9916667,23.7583524 10.9,23.4947368 C11.2083333,22.4320366 11.5916667,21.3363844 12.025,20.2407323 C12.3666667,20.8997712 12.725,21.5588101 13.1166667,22.217849 C13.5083333,22.8768879 13.9083333,23.5194508 14.3166667,24.1455378 Z M20.475,7.00228833 C21.25,7.79313501 22.025,8.67459954 22.7916667,9.63844394 C22.0416667,9.60549199 21.275,9.58077803 20.5,9.58077803 C19.7166667,9.58077803 18.9416667,9.597254 18.1833333,9.63844394 C18.9333333,8.67459954 19.7083333,7.79313501 20.475,7.00228833 Z M14.3083333,11.8544622 C13.9,12.4887872 13.4916667,13.1395881 13.1083333,13.806865 C12.725,14.4659039 12.3666667,15.1249428 12.025,15.7839817 C11.575,14.6800915 11.1916667,13.5762014 10.875,12.5052632 C11.9666667,12.2498856 13.1166667,12.02746 14.3083333,11.8544622 Z M6.76666667,22.1684211 C3.81666667,20.9244851 1.90833333,19.2933638 1.90833333,18 C1.90833333,16.7066362 3.81666667,15.0672769 6.76666667,13.8315789 C7.48333333,13.5267735 8.26666667,13.2549199 9.075,12.9995423 C9.55,14.6141876 10.175,16.2947368 10.95,18.016476 C10.1833333,19.7299771 9.56666667,21.4022883 9.1,23.0086957 C8.275,22.7533181 7.49166667,22.4732265 6.76666667,22.1684211 Z M11.25,33.9405034 C10.1166667,33.2979405 9.625,30.8512586 10.0083333,27.7043478 C10.1,26.9299771 10.25,26.1144165 10.4333333,25.2823799 C12.0666667,25.6778032 13.85,25.9826087 15.725,26.1803204 C16.85,27.7043478 18.0166667,29.0883295 19.1916667,30.2993135 C16.475,32.7954233 13.925,34.1629291 12.1916667,34.1629291 C11.8166667,34.1546911 11.5,34.0805492 11.25,33.9405034 Z M31.0166667,27.6631579 C31.4083333,30.8100686 30.925,33.2567506 29.8,33.9075515 C29.55,34.0558352 29.225,34.1217391 28.8416667,34.1217391 C27.1166667,34.1217391 24.5583333,32.7624714 21.8416667,30.2828375 C23.0083333,29.0718535 24.175,27.6961098 25.2833333,26.1720824 C27.1666667,25.9743707 28.95,25.6695652 30.5833333,25.2659039 C30.775,26.0979405 30.925,26.8970252 31.0166667,27.6631579 Z M34.225,22.1684211 C33.5083333,22.4732265 32.725,22.7450801 31.9166667,23.0004577 C31.4416667,21.3858124 30.8166667,19.7052632 30.0416667,17.983524 C30.8083333,16.2700229 31.425,14.5977117 31.8916667,12.9913043 C32.7166667,13.2466819 33.5,13.5267735 34.2333333,13.8315789 C37.1833333,15.0755149 39.0916667,16.7066362 39.0916667,18 C39.0833333,19.2933638 37.175,20.9327231 34.225,22.1684211 Z" id="Shape"></path>
                    <ellipse id="Oval" cx="20.4916667" cy="18" rx="3.80833333" ry="3.76475973"></ellipse>
                </g>
                <path d="M60.1582031,24.234375 C61.7142005,24.234375 62.9983673,23.8600298 64.0107422,23.1113281 C65.023117,22.3626265 65.6888005,21.2916736 66.0078125,19.8984375 L64.2304688,19.8984375 C63.9765612,20.7578168 63.4947952,21.4251278 62.7851562,21.9003906 C62.0755173,22.3756534 61.2031302,22.6132812 60.1679688,22.6132812 C58.7747326,22.6132812 57.6679729,22.1005911 56.8476562,21.0751953 C56.0273396,20.0497996 55.6171875,18.6744878 55.6171875,16.9492188 C55.6171875,15.2369706 56.0305948,13.8665416 56.8574219,12.8378906 C57.6842489,11.8092396 58.7844983,11.2949219 60.1582031,11.2949219 C61.1673228,11.2949219 62.042965,11.5732394 62.7851562,12.1298828 C63.5273475,12.6865262 64.0091135,13.4270787 64.2304688,14.3515625 L66.0078125,14.3515625 C65.7864572,12.9453055 65.1403048,11.8141319 64.0693359,10.9580078 C62.998367,10.1018837 61.6946691,9.67382812 60.1582031,9.67382812 C58.2311102,9.67382812 56.691412,10.3330012 55.5390625,11.6513672 C54.386713,12.9697332 53.8105469,14.735666 53.8105469,16.9492188 C53.8105469,19.1823028 54.3834578,20.954746 55.5292969,22.2666016 C56.6751359,23.5784571 58.2180893,24.234375 60.1582031,24.234375 Z M68.3222656,24 L70.0214844,24 L70.0214844,17.9453125 C70.0214844,17.0208287 70.2786433,16.2802762 70.7929688,15.7236328 C71.3072942,15.1669894 72.007157,14.8886719 72.8925781,14.8886719 C73.7259156,14.8886719 74.3541646,15.1279273 74.7773438,15.6064453 C75.2005229,16.0849633 75.4121094,16.7441364 75.4121094,17.5839844 L75.4121094,24 L77.1113281,24 L77.1113281,17.28125 C77.1113281,16.1093691 76.7809278,15.1653682 76.1201172,14.4492188 C75.4593066,13.7330693 74.5527401,13.375 73.4003906,13.375 C72.5930949,13.375 71.9160184,13.5263657 71.3691406,13.8291016 C70.8222629,14.1318375 70.3860693,14.5826793 70.0605469,15.1816406 L70.0214844,15.1816406 L70.0214844,9.29296875 L68.3222656,9.29296875 L68.3222656,24 Z M83.1660156,22.6230469 C84.0253949,22.6230469 84.7366508,22.3740259 85.2998047,21.8759766 C85.8629585,21.3779272 86.1445312,20.7513059 86.1445312,19.9960938 L86.1445312,19.1464844 L83.390625,19.3222656 C81.7890545,19.4199224 80.9882812,19.9830678 80.9882812,21.0117188 C80.9882812,21.5000024 81.1852194,21.8906235 81.5791016,22.1835938 C81.9729837,22.476564 82.5019498,22.6230469 83.1660156,22.6230469 Z M82.8046875,24.0976562 C81.7369738,24.0976562 80.8776074,23.814456 80.2265625,23.2480469 C79.5755176,22.6816378 79.25,21.9329474 79.25,21.0019531 C79.25,19.1464751 80.565091,18.1373706 83.1953125,17.9746094 L86.1445312,17.7988281 L86.1445312,16.9199219 C86.1445312,16.2623665 85.9362,15.7594418 85.5195312,15.4111328 C85.1028625,15.0628238 84.5071653,14.8886719 83.7324219,14.8886719 C83.1204396,14.8886719 82.6044943,15.0335272 82.1845703,15.3232422 C81.7646463,15.6129572 81.5026047,16.008461 81.3984375,16.5097656 L79.7675781,16.5097656 C79.7936199,15.6178341 80.1891238,14.8723988 80.9541016,14.2734375 C81.7190793,13.6744762 82.6516872,13.375 83.7519531,13.375 C84.9954489,13.375 85.9882775,13.6826141 86.7304688,14.2978516 C87.47266,14.913089 87.84375,15.7382761 87.84375,16.7734375 L87.84375,24 L86.2324219,24 L86.2324219,22.1738281 L86.1933594,22.1738281 C85.8938787,22.7597686 85.4381541,23.2268863 84.8261719,23.5751953 C84.2141896,23.9235043 83.5403683,24.0976562 82.8046875,24.0976562 Z M90.5585938,24 L92.2578125,24 L92.2578125,9.29296875 L90.5585938,9.29296875 L90.5585938,24 Z M95.1191406,24 L96.8183594,24 L96.8183594,9.29296875 L95.1191406,9.29296875 L95.1191406,24 Z M103.78125,14.8691406 C102.954423,14.8691406 102.269208,15.1425754 101.725586,15.6894531 C101.181963,16.2363309 100.88086,16.9557247 100.822266,17.8476562 L106.613281,17.8476562 C106.59375,16.9557247 106.325198,16.2363309 105.807617,15.6894531 C105.290036,15.1425754 104.614587,14.8691406 103.78125,14.8691406 Z M106.574219,20.9921875 L108.253906,20.9921875 C108.110676,21.8971399 107.62891,22.6409476 106.808594,23.2236328 C105.988277,23.806318 105.01498,24.0976562 103.888672,24.0976562 C102.4108,24.0976562 101.237309,23.6175178 100.368164,22.6572266 C99.4990191,21.6969353 99.0644531,20.4030029 99.0644531,18.7753906 C99.0644531,17.1412679 99.4973915,15.8326872 100.363281,14.8496094 C101.229171,13.8665315 102.378248,13.375 103.810547,13.375 C105.216804,13.375 106.330074,13.837235 107.150391,14.7617188 C107.970707,15.6862025 108.380859,16.9459556 108.380859,18.5410156 L108.380859,19.2050781 L100.822266,19.2050781 L100.822266,19.3027344 C100.822266,20.3053436 101.105466,21.1061168 101.671875,21.7050781 C102.238284,22.3040395 102.99023,22.6035156 103.927734,22.6035156 C104.58529,22.6035156 105.153318,22.4586603 105.631836,22.1689453 C106.110354,21.8792303 106.424478,21.4869816 106.574219,20.9921875 Z M110.529297,24 L112.228516,24 L112.228516,17.8867188 C112.228516,16.9817663 112.474281,16.2558621 112.96582,15.7089844 C113.457359,15.1621066 114.136063,14.8886719 115.001953,14.8886719 C115.835291,14.8886719 116.453774,15.1165342 116.857422,15.5722656 C117.26107,16.0279971 117.462891,16.6855426 117.462891,17.5449219 L117.462891,24 L119.162109,24 L119.162109,17.2519531 C119.162109,16.0540305 118.843102,15.1084019 118.205078,14.4150391 C117.567054,13.7216762 116.668626,13.375 115.509766,13.375 C114.695959,13.375 114.018883,13.5263657 113.478516,13.8291016 C112.938148,14.1318375 112.501955,14.5826793 112.169922,15.1816406 L112.130859,15.1816406 L112.130859,13.4726562 L110.529297,13.4726562 L110.529297,24 Z M126.037109,22.4863281 C126.961593,22.4863281 127.708656,22.1363967 128.27832,21.4365234 C128.847985,20.7366501 129.132812,19.8235733 129.132812,18.6972656 C129.132812,17.5644475 128.847985,16.6464879 128.27832,15.9433594 C127.708656,15.2402309 126.961593,14.8886719 126.037109,14.8886719 C125.119136,14.8886719 124.383466,15.2353481 123.830078,15.9287109 C123.27669,16.6220738 123,17.5449161 123,18.6972656 C123,19.8431047 123.27669,20.7610643 123.830078,21.4511719 C124.383466,22.1412795 125.119136,22.4863281 126.037109,22.4863281 Z M126.095703,27.9648438 C124.956375,27.9648438 123.973311,27.6735055 123.146484,27.0908203 C122.319657,26.5081351 121.831381,25.7708378 121.681641,24.8789062 L123.439453,24.8789062 C123.608725,25.3671899 123.940753,25.7594386 124.435547,26.0556641 C124.930341,26.3518895 125.509762,26.5 126.173828,26.5 C127.091801,26.5 127.81445,26.2558618 128.341797,25.7675781 C128.869143,25.2792944 129.132812,24.6380248 129.132812,23.84375 L129.132812,22.1933594 L129.09375,22.1933594 C128.761717,22.7662789 128.299482,23.2106104 127.707031,23.5263672 C127.11458,23.842124 126.450525,24 125.714844,24 C124.380202,24 123.304366,23.5133512 122.487305,22.5400391 C121.670243,21.5667269 121.261719,20.2858152 121.261719,18.6972656 C121.261719,17.0891847 121.671871,15.8001351 122.492188,14.8300781 C123.312504,13.8600212 124.399733,13.375 125.753906,13.375 C126.496097,13.375 127.165036,13.5312484 127.760742,13.84375 C128.356448,14.1562516 128.830076,14.6022106 129.181641,15.1816406 L129.210938,15.1816406 L129.210938,13.4726562 L130.832031,13.4726562 L130.832031,23.7851562 C130.832031,25.0416729 130.403976,26.052405 129.547852,26.8173828 C128.691727,27.5823606 127.541023,27.9648438 126.095703,27.9648438 Z M137.697266,14.8691406 C136.870439,14.8691406 136.185224,15.1425754 135.641602,15.6894531 C135.097979,16.2363309 134.796875,16.9557247 134.738281,17.8476562 L140.529297,17.8476562 C140.509766,16.9557247 140.241214,16.2363309 139.723633,15.6894531 C139.206052,15.1425754 138.530603,14.8691406 137.697266,14.8691406 Z M140.490234,20.9921875 L142.169922,20.9921875 C142.026692,21.8971399 141.544926,22.6409476 140.724609,23.2236328 C139.904293,23.806318 138.930995,24.0976562 137.804688,24.0976562 C136.326816,24.0976562 135.153325,23.6175178 134.28418,22.6572266 C133.415035,21.6969353 132.980469,20.4030029 132.980469,18.7753906 C132.980469,17.1412679 133.413407,15.8326872 134.279297,14.8496094 C135.145187,13.8665315 136.294264,13.375 137.726562,13.375 C139.13282,13.375 140.24609,13.837235 141.066406,14.7617188 C141.886723,15.6862025 142.296875,16.9459556 142.296875,18.5410156 L142.296875,19.2050781 L134.738281,19.2050781 L134.738281,19.3027344 C134.738281,20.3053436 135.021482,21.1061168 135.587891,21.7050781 C136.1543,22.3040395 136.906245,22.6035156 137.84375,22.6035156 C138.501305,22.6035156 139.069334,22.4586603 139.547852,22.1689453 C140.02637,21.8792303 140.340494,21.4869816 140.490234,20.9921875 Z" id="Challenge"></path>
            </g>
        </g>
    </g>
</svg>
