
<svg width="143px" height="36px" viewBox="0 0 143 36" version="1.1" xmlns="http://www.w3.org/2000/svg" xmlns:xlink="http://www.w3.org/1999/xlink">
    <!-- Generator: Sketch 43.1 (39012) - http://www.bohemiancoding.com/sketch -->
    <desc>Created with Sketch.</desc>
    <defs></defs>
    <g id="Page-1" stroke="none" stroke-width="1" fill="none" fill-rule="evenodd">
        <g id="Desktop-HD" transform="translate(-121.000000, -80.000000)" fill="#FF5353">
            <g id="nav-logo" transform="translate(121.000000, 80.000000)">
                <g fill-rule="nonzero">
                    <path d="M40.9416667,18 C40.9416667,15.3226545 37.55,12.7853547 32.35,11.2118993 C33.55,5.97254005 33.0166667,1.80411899 30.6666667,0.469565217 C30.125,0.156521739 29.4916667,0.00823798627 28.8,0.00823798627 L28.8,1.84530892 C29.1833333,1.84530892 29.4916667,1.9194508 29.75,2.05949657 C30.8833333,2.7020595 31.375,5.14874142 30.9916667,8.29565217 C30.9,9.07002288 30.75,9.88558352 30.5666667,10.7176201 C28.9333333,10.3221968 27.15,10.0173913 25.275,9.81967963 C24.15,8.29565217 22.9833333,6.91167048 21.8083333,5.7006865 C24.525,3.20457666 27.075,1.83707094 28.8083333,1.83707094 L28.8083333,0 L28.8083333,0 C26.5166667,0 23.5166667,1.61464531 20.4833333,4.41556064 C17.45,1.63112128 14.45,0.0329519451 12.1583333,0.0329519451 L12.1583333,1.87002288 C13.8833333,1.87002288 16.4416667,3.22929062 19.1583333,5.70892449 C17.9916667,6.91990847 16.825,8.29565217 15.7166667,9.81967963 C13.8333333,10.0173913 12.05,10.3221968 10.4166667,10.7258581 C10.225,9.9020595 10.0833333,9.10297483 9.98333333,8.33684211 C9.59166667,5.18993135 10.075,2.74324943 11.2,2.09244851 C11.45,1.94416476 11.775,1.87826087 12.1583333,1.87826087 L12.1583333,0.0411899314 L12.1583333,0.0411899314 C11.4583333,0.0411899314 10.825,0.189473684 10.275,0.502517162 C7.93333333,1.83707094 7.40833333,5.997254 8.61666667,11.2201373 C3.43333333,12.8018307 0.0583333333,15.3308924 0.0583333333,18 C0.0583333333,20.6773455 3.45,23.2146453 8.65,24.7881007 C7.45,30.02746 7.98333333,34.195881 10.3333333,35.5304348 C10.875,35.8434783 11.5083333,35.991762 12.2083333,35.991762 C14.5,35.991762 17.5,34.3771167 20.5333333,31.5762014 C23.5666667,34.3606407 26.5666667,35.9588101 28.8583333,35.9588101 C29.5583333,35.9588101 30.1916667,35.8105263 30.7416667,35.4974828 C33.0833333,34.1629291 33.6083333,30.002746 32.4,24.7798627 C37.5666667,23.2064073 40.9416667,20.6691076 40.9416667,18 Z M30.0916667,12.5052632 C29.7833333,13.5679634 29.4,14.6636156 28.9666667,15.7592677 C28.625,15.1002288 28.2666667,14.4411899 27.875,13.782151 C27.4916667,13.1231121 27.0833333,12.4805492 26.675,11.8544622 C27.8583333,12.02746 29,12.2416476 30.0916667,12.5052632 Z M26.275,21.2787185 C25.625,22.3908467 24.9583333,23.4453089 24.2666667,24.4256293 C23.025,24.5327231 21.7666667,24.590389 20.5,24.590389 C19.2416667,24.590389 17.9833333,24.5327231 16.75,24.4338673 C16.0583333,23.4535469 15.3833333,22.4073227 14.7333333,21.3034325 C14.1,20.2242563 13.525,19.1286041 13,18.024714 C13.5166667,16.9208238 14.1,15.8169336 14.725,14.7377574 C15.375,13.6256293 16.0416667,12.571167 16.7333333,11.5908467 C17.975,11.4837529 19.2333333,11.426087 20.5,11.426087 C21.7583333,11.426087 23.0166667,11.4837529 24.25,11.5826087 C24.9416667,12.5629291 25.6166667,13.6091533 26.2666667,14.7130435 C26.9,15.7922197 27.475,16.8878719 28,17.991762 C27.475,19.0956522 26.9,20.1995423 26.275,21.2787185 Z M28.9666667,20.2077803 C29.4166667,21.3116705 29.8,22.4155606 30.1166667,23.4864989 C29.025,23.7501144 27.875,23.97254 26.6833333,24.1455378 C27.0916667,23.5112128 27.5,22.8604119 27.8833333,22.193135 C28.2666667,21.5340961 28.625,20.8668192 28.9666667,20.2077803 Z M20.5166667,28.9977117 C19.7416667,28.206865 18.9666667,27.3254005 18.2,26.3615561 C18.95,26.394508 19.7166667,26.419222 20.4916667,26.419222 C21.275,26.419222 22.05,26.402746 22.8083333,26.3615561 C22.0583333,27.3254005 21.2833333,28.206865 20.5166667,28.9977117 Z M14.3166667,24.1455378 C13.1333333,23.97254 11.9916667,23.7583524 10.9,23.4947368 C11.2083333,22.4320366 11.5916667,21.3363844 12.025,20.2407323 C12.3666667,20.8997712 12.725,21.5588101 13.1166667,22.217849 C13.5083333,22.8768879 13.9083333,23.5194508 14.3166667,24.1455378 Z M20.475,7.00228833 C21.25,7.79313501 22.025,8.67459954 22.7916667,9.63844394 C22.0416667,9.60549199 21.275,9.58077803 20.5,9.58077803 C19.7166667,9.58077803 18.9416667,9.597254 18.1833333,9.63844394 C18.9333333,8.67459954 19.7083333,7.79313501 20.475,7.00228833 Z M14.3083333,11.8544622 C13.9,12.4887872 13.4916667,13.1395881 13.1083333,13.806865 C12.725,14.4659039 12.3666667,15.1249428 12.025,15.7839817 C11.575,14.6800915 11.1916667,13.5762014 10.875,12.5052632 C11.9666667,12.2498856 13.1166667,12.02746 14.3083333,11.8544622 Z M6.76666667,22.1684211 C3.81666667,20.9244851 1.90833333,19.2933638 1.90833333,18 C1.90833333,16.7066362 3.81666667,15.0672769 6.76666667,13.8315789 C7.48333333,13.5267735 8.26666667,13.2549199 9.075,12.9995423 C9.55,14.6141876 10.175,16.2947368 10.95,18.016476 C10.1833333,19.7299771 9.56666667,21.4022883 9.1,23.0086957 C8.275,22.7533181 7.49166667,22.4732265 6.76666667,22.1684211 Z M11.25,33.9405034 C10.1166667,33.2979405 9.625,30.8512586 10.0083333,27.7043478 C10.1,26.9299771 10.25,26.1144165 10.4333333,25.2823799 C12.0666667,25.6778032 13.85,25.9826087 15.725,26.1803204 C16.85,27.7043478 18.0166667,29.0883295 19.1916667,30.2993135 C16.475,32.7954233 13.925,34.1629291 12.1916667,34.1629291 C11.8166667,34.1546911 11.5,34.0805492 11.25,33.9405034 Z M31.0166667,27.6631579 C31.4083333,30.8100686 30.925,33.2567506 29.8,33.9075515 C29.55,34.0558352 29.225,34.1217391 28.8416667,34.1217391 C27.1166667,34.1217391 24.5583333,32.7624714 21.8416667,30.2828375 C23.0083333,29.0718535 24.175,27.6961098 25.2833333,26.1720824 C27.1666667,25.9743707 28.95,25.6695652 30.5833333,25.2659039 C30.775,26.0979405 30.925,26.8970252 31.0166667,27.6631579 Z M34.225,22.1684211 C33.5083333,22.4732265 32.725,22.7450801 31.9166667,23.0004577 C31.4416667,21.3858124 30.8166667,19.7052632 30.0416667,17.983524 C30.8083333,16.2700229 31.425,14.5977117 31.8916667,12.9913043 C32.7166667,13.2466819 33.5,13.5267735 34.2333333,13.8315789 C37.1833333,15.0755149 39.0916667,16.7066362 39.0916667,18 C39.0833333,19.2933638 37.175,20.9327231 34.225,22.1684211 Z" id="Shape"></path>
                    <ellipse id="Oval" cx="20.4916667" cy="18" rx="3.80833333" ry="3.76475973"></ellipse>
                </g>
                <text id="Challenge" font-family="Karla-Regular, Karla" font-size="20" font-weight="normal">
                    <tspan x="53" y="23">Challenge</tspan>
                </text>
            </g>
        </g>
    </g>
</svg>